<svg width="134" height="134" viewBox="0 0 134 134" fill="none" xmlns="http://www.w3.org/2000/svg">
<g filter="url(#filter0_d_0_144)">
<rect x="48.7268" y="34.4742" width="47.78" height="47.78" rx="10" transform="rotate(12.391 48.7268 34.4742)" fill="white" shape-rendering="crispEdges"/>
<path d="M76.6232 69.6858C76.6077 70.0455 76.5119 70.4117 76.3267 70.7641C76.1414 71.1165 75.907 71.4467 75.6035 71.754C75.0908 72.2725 74.5346 72.639 73.9144 72.8626C73.3043 73.0866 72.6493 73.1886 71.9499 73.1586C70.9309 73.1148 69.8522 72.8283 68.7242 72.2894C67.5963 71.7505 66.4757 71.0418 65.3723 70.1637C64.2594 69.2751 63.2103 68.2992 62.2155 67.2255C61.231 66.1423 60.3486 65.0134 59.5683 63.8389C58.798 62.6647 58.1875 61.4975 57.7564 60.3479C57.3257 59.1884 57.1327 58.0891 57.1773 57.05C57.2065 56.3707 57.3543 55.7264 57.6198 55.1373C57.8857 54.5381 58.2894 53.9949 58.8404 53.5181C59.5068 52.9162 60.2194 52.6365 60.9588 52.6682C61.2385 52.6802 61.5157 52.7522 61.7603 52.8828C62.0149 53.0138 62.237 53.2035 62.4057 53.471L64.5833 56.8375C64.7524 57.095 64.8724 57.3304 64.9529 57.554C65.0338 57.7677 65.0747 57.9797 65.0666 58.1695C65.0563 58.4093 64.976 58.646 64.8263 58.8698C64.6866 59.094 64.4864 59.3257 64.2364 59.5552L63.4432 60.3118C63.3286 60.417 63.273 60.5447 63.2662 60.7046C63.2627 60.7845 63.2697 60.8549 63.2863 60.9357C63.3128 61.0169 63.3402 61.0781 63.3576 61.1389C63.5233 61.4763 63.8146 61.9192 64.2318 62.4576C64.6591 62.9965 65.116 63.5466 65.6127 64.0984C66.1295 64.6511 66.628 65.1629 67.1382 65.6352C67.6389 66.0971 68.0556 66.4153 68.3876 66.6097C68.4367 66.6318 68.4953 66.6644 68.564 66.6974C68.6426 66.7308 68.7221 66.7442 68.812 66.7481C68.9819 66.7553 69.1143 66.701 69.2289 66.5958L70.0204 65.8791C70.2809 65.64 70.5288 65.4605 70.7638 65.3505C70.9996 65.2205 71.2324 65.1604 71.4821 65.1711C71.6719 65.1793 71.87 65.2278 72.086 65.3272C72.3019 65.4265 72.5261 65.5663 72.7686 65.7469L75.9748 68.2367C76.2268 68.4277 76.3976 68.6452 76.4968 68.8997C76.586 69.1537 76.6352 69.4061 76.6232 69.6858Z" stroke="#232323" stroke-width="1.5" stroke-miterlimit="10"/>
<path d="M73.5566 60.2156C73.5823 59.6161 73.1522 58.6768 72.4851 57.8975C71.8752 57.1807 71.0492 56.6047 70.21 56.5687" stroke="#232323" stroke-width="1.5" stroke-linecap="round" stroke-linejoin="round"/>
<path d="M77.0534 60.3657C77.2194 56.4993 74.2265 53.2379 70.3601 53.0719" stroke="#232323" stroke-width="1.5" stroke-linecap="round" stroke-linejoin="round"/>
</g>
<defs>
<filter id="filter0_d_0_144" x="-1.52588" y="-1.52582" width="136.92" height="136.92" filterUnits="userSpaceOnUse" color-interpolation-filters="sRGB">
<feFlood flood-opacity="0" result="BackgroundImageFix"/>
<feColorMatrix in="SourceAlpha" type="matrix" values="0 0 0 0 0 0 0 0 0 0 0 0 0 0 0 0 0 0 127 0" result="hardAlpha"/>
<feOffset dy="4"/>
<feGaussianBlur stdDeviation="20"/>
<feComposite in2="hardAlpha" operator="out"/>
<feColorMatrix type="matrix" values="0 0 0 0 0 0 0 0 0 0 0 0 0 0 0 0 0 0 0.1 0"/>
<feBlend mode="normal" in2="BackgroundImageFix" result="effect1_dropShadow_0_144"/>
<feBlend mode="normal" in="SourceGraphic" in2="effect1_dropShadow_0_144" result="shape"/>
</filter>
</defs>
</svg>
